<?xml version="1.0" encoding="utf-8"?>
<!-- Generator: Adobe Illustrator 26.0.1, SVG Export Plug-In . SVG Version: 6.00 Build 0)  -->
<svg version="1.1" id="Layer_1" xmlns="http://www.w3.org/2000/svg" xmlns:xlink="http://www.w3.org/1999/xlink" x="0px" y="0px"
	 viewBox="0 0 64 64" style="enable-background:new 0 0 64 64;" xml:space="preserve">
<g>
	<path d="M57,9.9c-7.8,0-19-3.2-23.5-8.3L32.1,0l-1.5,1.5C25.3,6.8,14.9,10.9,7,10.9H5v25c0,16.8,25.2,27.4,26.2,27.8L32,64l0.8-0.3
		c1-0.4,26.2-11,26.2-27.8v-26H57z M55,35.9c0,12.7-18.9,22-23,23.8C27.9,57.9,9,48.6,9,35.9V14.8c7.9-0.5,17.2-4.2,22.9-9.2
		c5.4,4.8,15.2,7.7,23.1,8.2V35.9z"/>
	<g transform="translate(0, 0) scale(5.4784392)">
		<g transform="translate(-0.52916451,-13.227875)">
			<g>
				<path d="M8.3,16.1c-0.1,0.1-0.1,0.3,0,0.4l0.1,0.1l-0.5,0.5c-0.2-0.1-0.4-0.3-0.6-0.3c0,0,0,0.1,0,0.1c0,0.5-0.4,0.9-0.9,0.9
					S5.5,17.5,5.5,17c0,0,0-0.1,0-0.1c-0.2,0.1-0.4,0.2-0.6,0.3L4.7,17l0.1-0.1c0.1-0.1,0.1-0.3,0-0.4c-0.1-0.1-0.3-0.1-0.4,0
					l-0.6,0.6c-0.1,0.1-0.1,0.3,0,0.4c0.1,0.1,0.3,0.1,0.4,0l0.1-0.1l0.2,0.2C4.2,17.9,4,18.3,4,18.8h0c0-0.2-0.1-0.3-0.3-0.3
					c-0.2,0-0.3,0.1-0.3,0.3v0.6c0,0.2,0.1,0.3,0.3,0.3c0.2,0,0.3-0.1,0.3-0.3h0c0.1,0.4,0.2,0.8,0.5,1.2L4,21.1L3.9,21
					c-0.1-0.1-0.3-0.1-0.4,0c-0.1,0.1-0.1,0.3,0,0.4L4.1,22c0.1,0.1,0.3,0.1,0.4,0c0.1-0.1,0.1-0.3,0-0.4l-0.1-0.1L4.9,21
					c0.4,0.3,0.9,0.5,1.5,0.5c0.6,0,1.1-0.2,1.5-0.5L8,21.2L8,21.3c-0.1,0.1-0.1,0.3,0,0.4c0.1,0.1,0.3,0.1,0.4,0L9,21.1
					c0.1-0.1,0.1-0.3,0-0.4c-0.1-0.1-0.3-0.1-0.4,0l-0.1,0.1l-0.2-0.2c0.3-0.3,0.4-0.7,0.5-1.2h0c0,0.2,0.1,0.3,0.3,0.3
					c0.2,0,0.3-0.1,0.3-0.3v-0.6c0-0.2-0.1-0.3-0.3-0.3c-0.2,0-0.3,0.1-0.3,0.3h0c-0.1-0.4-0.2-0.8-0.5-1.2l0.5-0.5l0.1,0.1
					c0.1,0.1,0.3,0.1,0.4,0c0.1-0.1,0.1-0.3,0-0.4l-0.6-0.6C8.6,16,8.4,16,8.3,16.1z M6.1,21.5c-0.2,0-0.3,0.1-0.3,0.3
					c0,0.2,0.1,0.3,0.3,0.3h0.6c0.2,0,0.3-0.1,0.3-0.3c0-0.2-0.1-0.3-0.3-0.3H6.1z M7.6,18.2c0.3,0,0.6,0.3,0.6,0.6
					s-0.3,0.6-0.6,0.6S7,19.1,7,18.8C7,18.4,7.2,18.2,7.6,18.2z M5.8,18.8c0.5,0,0.9,0.4,0.9,0.9c0,0.5-0.4,0.9-0.9,0.9
					s-0.9-0.4-0.9-0.9C4.9,19.2,5.3,18.8,5.8,18.8z"/>
			</g>
		</g>
	</g>
</g>
</svg>
