<?xml version="1.0" standalone="no"?>
<svg xmlns="http://www.w3.org/2000/svg" viewBox="0 0 164.486 29" width="164.486" height="29"><g fill="#72edca" color="#72edca" transform="translate(0, 0) scale(5.4784392)"><svg width="5.29318" height="5.2934785" x="0.0" y="0.0" viewBox="0 0 5.29318 5.2934785"><g style="" transform="translate(-0.52916451,-13.227875)" display="inline"><g style="" display="inline"><path style="color:#000000;font-variant-ligatures:normal;font-variant-position:normal;font-variant-caps:normal;font-variant-numeric:normal;font-variant-alternates:normal;font-variant-east-asian:normal;font-feature-settings:normal;font-variation-settings:normal;text-indent:0;text-decoration-line:none;text-decoration-style:solid;text-decoration-color:#000000;text-transform:none;direction:ltr;text-orientation:mixed;dominant-baseline:auto;baseline-shift:baseline;white-space:normal;shape-padding:0;shape-margin:0;inline-size:0;isolation:auto;mix-blend-mode:normal;color-interpolation:sRGB;color-interpolation-filters:linearRGB;solid-color:#000000;solid-opacity:1;vector-effect:none;color-rendering:auto;image-rendering:auto;shape-rendering:auto;enable-background:accumulate;" d="m 4.8400148,13.30668 c -0.1039903,0.103439 -0.1039903,0.271732 0,0.375171 l 0.076998,0.077 -0.4475179,0.447002 C 4.3139305,14.08459 4.1425924,13.983109 3.9568647,13.908713 c 0.00546,0.03726 0.011369,0.07449 0.011369,0.113172 6e-7,0.435243 -0.3579908,0.7953 -0.7932333,0.7953 -0.4352425,0 -0.794784,-0.360057 -0.7947835,-0.7953 0,-0.03797 0.00608,-0.0745 0.011369,-0.111105 -0.1847871,0.07423 -0.3555361,0.175638 -0.5105632,0.296106 L 1.697571,14.023951 1.775603,13.945921 c 0.1036443,-0.103381 0.1036443,-0.271273 0,-0.374654 -0.1191547,-0.118504 -0.2777221,-0.09233 -0.3751709,0 l -0.52916672,0.529167 c -0.10399033,0.103439 -0.10399033,0.271732 0,0.375171 0.10338055,0.103644 0.27127352,0.103644 0.37465412,0 l 0.078031,-0.07803 0.1844849,0.185519 C 1.2807144,14.875418 1.1280228,15.226443 1.079521,15.611455 H 1.05885 c 5.795e-4,-0.147138 -0.11899656,-0.266484 -0.2661336,-0.265621 -0.14612583,5.7e-4 -0.26412172,0.119491 -0.26354982,0.265617 v 0.527099 c -5.719e-4,0.146126 0.11742399,0.265047 0.26354982,0.265617 0.14713547,8.63e-4 0.2667109,-0.11848 0.2661336,-0.265617 h 0.018087 c 0.048342,0.385541 0.2011061,0.73854 0.4289144,1.031462 L 1.05885,17.617013 0.98030183,17.538981 c -0.12451901,-0.117669 -0.28758487,-0.08446 -0.37310383,0 -0.10399033,0.103439 -0.10399033,0.271732 0,0.375171 l 0.5296835,0.529166 c 0.1032023,0.102612 0.2699015,0.102612 0.3731038,0 0.1039903,-0.103439 0.1039903,-0.271732 0,-0.375171 l -0.076481,-0.07648 0.4464844,-0.447518 c 0.358841,0.279465 0.8079002,0.448035 1.2960448,0.448035 0.4876726,0 0.9362446,-0.168025 1.2944947,-0.447001 l 0.181901,0.180867 -0.078031,0.07803 c -0.1036443,0.103381 -0.1036443,0.271273 0,0.374654 0.1232888,0.122638 0.3004598,0.0851 0.3751709,0 l 0.5291667,-0.529167 c 0.1039903,-0.103439 0.1039903,-0.271732 0,-0.375171 -0.1033805,-0.103644 -0.2712735,-0.103644 -0.374654,0 L 5.02605,17.35243 4.8446657,17.170528 C 5.0723402,16.877515 5.2247902,16.524302 5.2730634,16.13855 h 0.018087 c -5.751e-4,0.146934 0.1186829,0.266192 0.2656165,0.265617 0.1461258,-5.7e-4 0.2641217,-0.119491 0.2635498,-0.265617 V 15.611451 C 5.8208886,15.465325 5.7028927,15.346404 5.5567669,15.345834 5.4098332,15.345259 5.290575,15.464517 5.2911501,15.611451 H 5.2730632 C 5.2247949,15.225734 5.0721542,14.871853 4.8446654,14.578955 l 0.4464844,-0.445967 0.078031,0.07803 c 0.1034389,0.10399 0.271732,0.10399 0.3751709,0 0.1039903,-0.103439 0.1039903,-0.271732 0,-0.375171 L 5.2146686,13.306682 c -0.1173065,-0.117228 -0.2860614,-0.09218 -0.3746538,-2e-6 z M 2.9099,17.992184 c -0.1453193,5.67e-4 -0.2629834,0.118231 -0.2635499,0.26355 -5.719e-4,0.146126 0.117424,0.265047 0.2635499,0.265617 h 0.5296834 c 0.1469337,5.75e-4 0.2661919,-0.118683 0.2656168,-0.265617 -5.697e-4,-0.146126 -0.119491,-0.264122 -0.2656168,-0.26355 z m 1.3224,-2.9099 c 0.289116,0 0.5291664,0.24005 0.5291667,0.529167 -3e-7,0.289116 -0.2400507,0.527099 -0.5291667,0.527099 -0.2891163,0 -0.5270995,-0.237983 -0.5270998,-0.527099 3e-7,-0.289117 0.2379835,-0.529167 0.5270998,-0.529167 z m -1.5859499,0.529167 c 0.435242,0 0.7932328,0.357474 0.7932333,0.792716 5e-7,0.435242 -0.3579908,0.793233 -0.7932333,0.793233 -0.4352423,0 -0.7947839,-0.357991 -0.7947835,-0.793233 4e-7,-0.435242 0.3595418,-0.792716 0.7947835,-0.792716 z" clip-rule="nonzero" display="inline" overflow="visible" visibility="visible" fill="currentColor" fill-opacity="1" fill-rule="nonzero" stroke="none" stop-color="#000000"></path></g></g></svg></g><line x1="40.999" y1="1" x2="40.999" y2="28" stroke="#0019ff" stroke-linecap="round"></line><path fill="#0019ff" fill-rule="nonzero" d="M4.10 13.50L4.10 13.50Q3.67 14.07 3.67 14.41Q3.67 14.74 3.77 14.92Q3.88 15.11 4.23 15.27L4.23 15.27Q5.00 15.63 6.77 15.91Q8.54 16.18 9.54 16.59Q10.55 17.00 11.17 17.60L11.17 17.60Q12.33 18.74 12.33 20.82Q12.33 22.91 10.86 24.03Q9.40 25.15 6.52 25.15L6.52 25.15Q3.61 25.15 1.83 23.88L1.83 23.88Q0.05 22.62 0 20.52L0 20.52Q-0.07 18.08 1.91 16.99L1.91 16.99Q1.37 16.55 1.19 15.94Q1.01 15.34 1.01 14.57L1.01 14.57Q1.01 13.27 2.14 12.36L2.14 12.36Q0.82 11.11 0.82 9.25L0.82 9.25Q0.82 7.16 2.32 5.75L2.32 5.75Q3.90 4.28 6.42 4.28L6.42 4.28Q7.75 4.28 8.91 4.77L8.91 4.77Q10.43 4.13 11.14 3.64Q11.86 3.15 12.06 2.93L12.06 2.93L12.13 2.94Q12.23 3.22 12.38 3.74L12.38 3.74L12.59 4.58Q12.87 5.63 12.93 6.01L12.93 6.01Q12.41 6.57 11.11 6.81L11.11 6.81Q11.61 7.78 11.61 8.87Q11.61 9.96 11.24 10.85Q10.86 11.73 10.17 12.40L10.17 12.40Q8.64 13.84 6.26 13.84L6.26 13.84Q5.10 13.84 4.10 13.50ZM3.80 8.23L3.80 8.23Q3.63 8.65 3.63 9.08Q3.63 9.52 3.81 9.91Q4.00 10.31 4.35 10.63L4.35 10.63Q5.13 11.33 6.40 11.33L6.40 11.33Q7.36 11.33 8.06 10.69L8.06 10.69Q8.80 9.98 8.80 8.99Q8.80 8.00 8.13 7.39Q7.46 6.79 6.29 6.79L6.29 6.79Q4.36 6.79 3.80 8.23ZM6.67 22.66L6.67 22.66Q9.55 22.66 9.55 20.65L9.55 20.65Q9.55 19.69 8.61 19.10L8.61 19.10Q7.56 18.43 4.99 18.06L4.99 18.06L4.38 17.95Q3.61 18.36 3.25 19.01Q2.88 19.65 2.89 20.23Q2.89 20.81 3.16 21.23Q3.43 21.66 3.91 21.97L3.91 21.97Q4.98 22.66 6.67 22.66ZM21.56 10.90L16.75 10.90Q15.86 10.90 15.29 10.96L15.29 10.96L15.33 8.06Q15.60 8.13 16.88 8.13L16.88 8.13L21.43 8.13Q22.72 8.13 22.98 8.06L22.98 8.06L23.02 10.96Q22.45 10.90 21.56 10.90L21.56 10.90ZM36.14 12.76L36.41 15.62Q35.10 16.93 32.30 16.93L32.30 16.93Q29.58 16.93 27.86 15.28L27.86 15.28Q26.11 13.61 26.11 10.83L26.11 10.83Q26.11 8.00 27.83 6.19L27.83 6.19Q29.66 4.28 32.72 4.28L32.72 4.28Q34.89 4.28 36.35 5.23L36.35 5.23L35.88 8.23L35.80 8.21Q35.24 7.54 34.62 7.32L34.62 7.32Q33.61 6.97 32.60 6.97Q31.59 6.97 31.02 7.23Q30.45 7.49 30.04 7.95L30.04 7.95Q29.21 8.88 29.21 10.43L29.21 10.43Q29.21 13.17 31.11 14.02L31.11 14.02Q31.77 14.30 32.50 14.30Q33.23 14.30 33.78 14.17Q34.32 14.04 34.77 13.82L34.77 13.82Q35.72 13.35 36.06 12.73L36.06 12.73L36.14 12.76ZM42.04 8.61L42.04 15.45Q42.04 16.45 42.08 16.76L42.08 16.76L39.16 16.76L39.16 0L42.04 0L42.04 5.43Q43.55 4.28 45.15 4.28L45.15 4.28Q47.12 4.28 48.32 5.58L48.32 5.58Q49.49 6.88 49.49 9.02L49.49 9.02L49.49 13.69Q49.49 15.67 49.55 16.07Q49.61 16.46 49.71 16.58Q49.80 16.70 49.88 16.79L49.88 16.79L49.85 16.84Q48.90 16.76 48.47 16.76L48.47 16.76L47.64 16.76Q47.25 16.76 46.62 16.79L46.62 16.79L46.62 10.01Q46.62 8.39 45.90 7.62L45.90 7.62Q45.36 7.03 44.44 7.03L44.44 7.03Q43.07 7.03 42.04 8.61L42.04 8.61ZM52.25 10.73L52.25 10.73Q52.25 9.36 52.72 8.19Q53.19 7.02 54.05 6.14L54.05 6.14Q55.88 4.28 58.83 4.28L58.83 4.28Q61.32 4.28 62.84 5.93L62.84 5.93Q64.32 7.52 64.32 9.94L64.32 9.94Q64.32 10.86 64.18 11.20L64.18 11.20Q63.01 11.53 59.41 11.53L59.41 11.53L55.29 11.53Q55.59 12.79 56.71 13.48Q57.82 14.18 59.60 14.18L59.60 14.18Q61.46 14.18 62.80 13.51L62.80 13.51Q63.15 13.34 63.33 13.18L63.33 13.18Q63.30 13.68 63.27 14.19L63.27 14.19L63.14 16.02Q62.25 16.63 60.26 16.86L60.26 16.86Q59.67 16.93 59.13 16.93L59.13 16.93Q56.16 16.93 54.21 15.20L54.21 15.20Q52.25 13.45 52.25 10.73ZM61.21 9.26L61.21 9.26Q60.73 6.74 58.46 6.74L58.46 6.74Q56.68 6.74 55.76 8.27L55.76 8.27Q55.48 8.74 55.32 9.30L55.32 9.30Q55.61 9.32 56.02 9.33L56.02 9.33L56.88 9.33Q57.32 9.34 57.71 9.34L57.71 9.34L58.38 9.34Q58.98 9.34 59.55 9.33L59.55 9.33L60.52 9.29Q60.90 9.28 61.21 9.26ZM76.17 12.76L76.44 15.62Q75.13 16.93 72.33 16.93L72.33 16.93Q69.61 16.93 67.89 15.28L67.89 15.28Q66.14 13.61 66.14 10.83L66.14 10.83Q66.14 8.00 67.86 6.19L67.86 6.19Q69.69 4.28 72.75 4.28L72.75 4.28Q74.92 4.28 76.38 5.23L76.38 5.23L75.91 8.23L75.83 8.21Q75.27 7.54 74.65 7.32L74.65 7.32Q73.64 6.97 72.63 6.97Q71.63 6.97 71.05 7.23Q70.48 7.49 70.07 7.95L70.07 7.95Q69.25 8.88 69.25 10.43L69.25 10.43Q69.25 13.17 71.14 14.02L71.14 14.02Q71.80 14.30 72.53 14.30Q73.27 14.30 73.81 14.17Q74.36 14.04 74.80 13.82L74.80 13.82Q75.75 13.35 76.09 12.73L76.09 12.73L76.17 12.76ZM81.94 13.96L81.94 15.21Q81.94 16.22 82.02 16.76L82.02 16.76L79.07 16.76L79.07 0L81.94 0L81.94 10.27L87.29 4.51L90.77 4.51L86.16 9.38L88.79 12.97Q89.65 14.33 90.08 14.96L90.08 14.96L90.86 16.05Q91.21 16.51 91.44 16.76L91.44 16.76L89.59 16.76Q88.56 16.76 87.82 16.93L87.82 16.93L84.16 11.59L81.94 13.96ZM92.29 10.73L92.29 10.73Q92.29 9.36 92.75 8.19Q93.22 7.02 94.08 6.14L94.08 6.14Q95.91 4.28 98.86 4.28L98.86 4.28Q101.36 4.28 102.87 5.93L102.87 5.93Q104.36 7.52 104.36 9.94L104.36 9.94Q104.36 10.86 104.21 11.20L104.21 11.20Q103.04 11.53 99.45 11.53L99.45 11.53L95.32 11.53Q95.63 12.79 96.74 13.48Q97.85 14.18 99.63 14.18L99.63 14.18Q101.50 14.18 102.83 13.51L102.83 13.51Q103.18 13.34 103.36 13.18L103.36 13.18Q103.34 13.68 103.30 14.19L103.30 14.19L103.17 16.02Q102.28 16.63 100.29 16.86L100.29 16.86Q99.70 16.93 99.16 16.93L99.16 16.93Q96.19 16.93 94.24 15.20L94.24 15.20Q92.29 13.45 92.29 10.73ZM101.24 9.26L101.24 9.26Q100.76 6.74 98.50 6.74L98.50 6.74Q96.71 6.74 95.79 8.27L95.79 8.27Q95.51 8.74 95.36 9.30L95.36 9.30Q95.64 9.32 96.05 9.33L96.05 9.33L96.91 9.33Q97.35 9.34 97.75 9.34L97.75 9.34L98.41 9.34Q99.01 9.34 99.59 9.33L99.59 9.33L100.55 9.29Q100.93 9.28 101.24 9.26ZM109.66 8.23L109.66 15.45Q109.66 16.45 109.71 16.76L109.71 16.76L106.79 16.76L106.79 4.51L109.66 4.51L109.66 5.41Q110.66 4.28 111.76 4.28Q112.85 4.28 113.48 4.55L113.48 4.55L113.27 7.70L113.23 7.73Q112.82 7.01 111.53 7.01L111.53 7.01Q111.04 7.01 110.53 7.34Q110.02 7.68 109.66 8.23L109.66 8.23Z" transform="translate(50.999, 1.926)"></path></svg>