<?xml version="1.0" encoding="UTF-8" standalone="no"?>
<!DOCTYPE svg PUBLIC "-//W3C//DTD SVG 1.1//EN"
 "http://www.w3.org/Graphics/SVG/1.1/DTD/svg11.dtd">
<!-- Generated by graphviz version 2.40.1 (20161225.0304)
 -->
<!-- Title: models_diagram Pages: 1 -->
<svg width="577pt" height="559pt"
 viewBox="0.00 0.00 576.64 558.87" xmlns="http://www.w3.org/2000/svg" xmlns:xlink="http://www.w3.org/1999/xlink">
<g id="graph0" class="graph" transform="scale(1 1) rotate(0) translate(36 522.8698)">
<title>models_diagram</title>
<polygon fill="#ffffff" stroke="transparent" points="-36,36 -36,-522.8698 540.6423,-522.8698 540.6423,36 -36,36"/>
<!-- proof -->
<g id="node1" class="node">
<title>proof</title>
<polygon fill="#add8e6" stroke="transparent" points=".5,-325.9349 .5,-347.9349 115.5,-347.9349 115.5,-325.9349 .5,-325.9349"/>
<polygon fill="none" stroke="#000000" points=".5,-325.9349 .5,-347.9349 115.5,-347.9349 115.5,-325.9349 .5,-325.9349"/>
<text text-anchor="start" x="47.171" y="-334.9349" font-family="Times,serif" font-weight="bold" font-size="10.00" fill="#000000">proof</text>
<polygon fill="none" stroke="#000000" points=".5,-303.9349 .5,-325.9349 115.5,-325.9349 115.5,-303.9349 .5,-303.9349"/>
<text text-anchor="start" x="5.5" y="-312.9349" font-family="Times,serif" text-decoration="underline" font-size="10.00" fill="#000000">id</text>
<text text-anchor="start" x="13.279" y="-312.9349" font-family="Times,serif" font-size="10.00" fill="#000000">: NUMBER</text>
<polygon fill="none" stroke="#000000" points=".5,-281.9349 .5,-303.9349 115.5,-303.9349 115.5,-281.9349 .5,-281.9349"/>
<text text-anchor="start" x="5.5" y="-289.9349" font-family="Times,serif" font-size="10.00" fill="#000000">checked_at: DATE</text>
<polygon fill="none" stroke="#000000" points=".5,-259.9349 .5,-281.9349 115.5,-281.9349 115.5,-259.9349 .5,-259.9349"/>
<text text-anchor="start" x="5.5" y="-267.9349" font-family="Times,serif" font-size="10.00" fill="#000000">valid_till: DATE</text>
<polygon fill="none" stroke="#000000" points=".5,-237.9349 .5,-259.9349 115.5,-259.9349 115.5,-237.9349 .5,-237.9349"/>
<text text-anchor="start" x="5.5" y="-245.9349" font-family="Times,serif" font-size="10.00" fill="#000000">createdAt: DATE</text>
<polygon fill="none" stroke="#000000" points=".5,-215.9349 .5,-237.9349 115.5,-237.9349 115.5,-215.9349 .5,-215.9349"/>
<text text-anchor="start" x="5.5" y="-223.9349" font-family="Times,serif" font-size="10.00" fill="#000000">updatedAt: DATE</text>
<polygon fill="none" stroke="#000000" points=".5,-193.9349 .5,-215.9349 115.5,-215.9349 115.5,-193.9349 .5,-193.9349"/>
<text text-anchor="start" x="5.377" y="-202.9349" font-family="Times,serif" font-style="italic" text-decoration="underline" font-size="10.00" fill="#000000">checked_from</text>
<text text-anchor="start" x="62.57" y="-202.9349" font-family="Times,serif" font-size="10.00" fill="#000000">: NUMBER</text>
</g>
<!-- user -->
<g id="node3" class="node">
<title>user</title>
<polygon fill="#add8e6" stroke="transparent" points="134.5,-380.9349 134.5,-402.9349 279.5,-402.9349 279.5,-380.9349 134.5,-380.9349"/>
<polygon fill="none" stroke="#000000" points="134.5,-380.9349 134.5,-402.9349 279.5,-402.9349 279.5,-380.9349 134.5,-380.9349"/>
<text text-anchor="start" x="198.6715" y="-389.9349" font-family="Times,serif" font-weight="bold" font-size="10.00" fill="#000000">user</text>
<polygon fill="none" stroke="#000000" points="134.5,-358.9349 134.5,-380.9349 279.5,-380.9349 279.5,-358.9349 134.5,-358.9349"/>
<text text-anchor="start" x="139.5" y="-367.9349" font-family="Times,serif" text-decoration="underline" font-size="10.00" fill="#000000">id</text>
<text text-anchor="start" x="147.279" y="-367.9349" font-family="Times,serif" font-size="10.00" fill="#000000">: NUMBER</text>
<polygon fill="none" stroke="#000000" points="134.5,-336.9349 134.5,-358.9349 279.5,-358.9349 279.5,-336.9349 134.5,-336.9349"/>
<text text-anchor="start" x="139.5" y="-344.9349" font-family="Times,serif" font-size="10.00" fill="#000000">name: STRING</text>
<polygon fill="none" stroke="#000000" points="134.5,-314.9349 134.5,-336.9349 279.5,-336.9349 279.5,-314.9349 134.5,-314.9349"/>
<text text-anchor="start" x="139.5" y="-322.9349" font-family="Times,serif" font-size="10.00" fill="#000000">password: STRING</text>
<polygon fill="none" stroke="#000000" points="134.5,-292.9349 134.5,-314.9349 279.5,-314.9349 279.5,-292.9349 134.5,-292.9349"/>
<text text-anchor="start" x="139.5" y="-300.9349" font-family="Times,serif" font-size="10.00" fill="#000000">email: STRING</text>
<polygon fill="none" stroke="#000000" points="134.5,-270.9349 134.5,-292.9349 279.5,-292.9349 279.5,-270.9349 134.5,-270.9349"/>
<text text-anchor="start" x="139.5" y="-278.9349" font-family="Times,serif" font-size="10.00" fill="#000000">password_reset_token: UUID</text>
<polygon fill="none" stroke="#000000" points="134.5,-248.9349 134.5,-270.9349 279.5,-270.9349 279.5,-248.9349 134.5,-248.9349"/>
<text text-anchor="start" x="139.1105" y="-256.9349" font-family="Times,serif" font-size="10.00" fill="#000000">password_reset_expire_at: DATE</text>
<polygon fill="none" stroke="#000000" points="134.5,-226.9349 134.5,-248.9349 279.5,-248.9349 279.5,-226.9349 134.5,-226.9349"/>
<text text-anchor="start" x="139.5" y="-234.9349" font-family="Times,serif" font-size="10.00" fill="#000000">auth_token: STRING</text>
<polygon fill="none" stroke="#000000" points="134.5,-204.9349 134.5,-226.9349 279.5,-226.9349 279.5,-204.9349 134.5,-204.9349"/>
<text text-anchor="start" x="139.5" y="-212.9349" font-family="Times,serif" font-size="10.00" fill="#000000">auth_token_expire_at: DATE</text>
<polygon fill="none" stroke="#000000" points="134.5,-182.9349 134.5,-204.9349 279.5,-204.9349 279.5,-182.9349 134.5,-182.9349"/>
<text text-anchor="start" x="139.5" y="-190.9349" font-family="Times,serif" font-size="10.00" fill="#000000">createdAt: DATE</text>
<polygon fill="none" stroke="#000000" points="134.5,-160.9349 134.5,-182.9349 279.5,-182.9349 279.5,-160.9349 134.5,-160.9349"/>
<text text-anchor="start" x="139.5" y="-168.9349" font-family="Times,serif" font-size="10.00" fill="#000000">updatedAt: DATE</text>
<polygon fill="none" stroke="#000000" points="134.5,-138.9349 134.5,-160.9349 279.5,-160.9349 279.5,-138.9349 134.5,-138.9349"/>
<text text-anchor="start" x="139.5" y="-147.9349" font-family="Times,serif" font-style="italic" text-decoration="underline" font-size="10.00" fill="#000000">bubbleId</text>
<text text-anchor="start" x="175.047" y="-147.9349" font-family="Times,serif" font-size="10.00" fill="#000000">: NUMBER</text>
</g>
<!-- proof&#45;&gt;user -->
<g id="edge1" class="edge">
<title>proof&#45;&gt;user</title>
<path fill="none" stroke="#000000" stroke-width=".75" d="M121.1991,-270.9349C125.384,-270.9349 129.6154,-270.9349 133.8389,-270.9349"/>
<polygon fill="#000000" stroke="#000000" stroke-width=".75" points="121.1073,-270.935 115.1073,-268.2349 118.1073,-270.9349 115.1073,-270.9349 115.1073,-270.9349 115.1073,-270.9349 118.1073,-270.9349 115.1072,-273.6349 121.1073,-270.935 121.1073,-270.935"/>
</g>
<!-- examinee -->
<g id="node2" class="node">
<title>examinee</title>
<polygon fill="#add8e6" stroke="transparent" points="390.1423,-242 390.1423,-264 505.1423,-264 505.1423,-242 390.1423,-242"/>
<polygon fill="none" stroke="#000000" points="390.1423,-242 390.1423,-264 505.1423,-264 505.1423,-242 390.1423,-242"/>
<text text-anchor="start" x="428.4853" y="-251" font-family="Times,serif" font-weight="bold" font-size="10.00" fill="#000000">examinee</text>
<polygon fill="none" stroke="#000000" points="390.1423,-220 390.1423,-242 505.1423,-242 505.1423,-220 390.1423,-220"/>
<text text-anchor="start" x="395.1423" y="-229" font-family="Times,serif" text-decoration="underline" font-size="10.00" fill="#000000">id</text>
<text text-anchor="start" x="402.9213" y="-229" font-family="Times,serif" font-size="10.00" fill="#000000">: NUMBER</text>
<polygon fill="none" stroke="#000000" points="390.1423,-198 390.1423,-220 505.1423,-220 505.1423,-198 390.1423,-198"/>
<text text-anchor="start" x="395.1423" y="-206" font-family="Times,serif" font-size="10.00" fill="#000000">firstname: STRING</text>
<polygon fill="none" stroke="#000000" points="390.1423,-176 390.1423,-198 505.1423,-198 505.1423,-176 390.1423,-176"/>
<text text-anchor="start" x="395.1423" y="-184" font-family="Times,serif" font-size="10.00" fill="#000000">lastname: STRING</text>
<polygon fill="none" stroke="#000000" points="390.1423,-154 390.1423,-176 505.1423,-176 505.1423,-154 390.1423,-154"/>
<text text-anchor="start" x="395.1423" y="-162" font-family="Times,serif" font-size="10.00" fill="#000000">category: STRING</text>
<polygon fill="none" stroke="#000000" points="390.1423,-132 390.1423,-154 505.1423,-154 505.1423,-132 390.1423,-132"/>
<text text-anchor="start" x="395.1423" y="-140" font-family="Times,serif" font-size="10.00" fill="#000000">status: STRING</text>
<polygon fill="none" stroke="#000000" points="390.1423,-110 390.1423,-132 505.1423,-132 505.1423,-110 390.1423,-110"/>
<text text-anchor="start" x="395.1423" y="-118" font-family="Times,serif" font-size="10.00" fill="#000000">checked_at: DATE</text>
<polygon fill="none" stroke="#000000" points="390.1423,-88 390.1423,-110 505.1423,-110 505.1423,-88 390.1423,-88"/>
<text text-anchor="start" x="395.1423" y="-96" font-family="Times,serif" font-size="10.00" fill="#000000">valid_till: DATE</text>
<polygon fill="none" stroke="#000000" points="390.1423,-66 390.1423,-88 505.1423,-88 505.1423,-66 390.1423,-66"/>
<text text-anchor="start" x="395.1423" y="-74" font-family="Times,serif" font-size="10.00" fill="#000000">createdAt: DATE</text>
<polygon fill="none" stroke="#000000" points="390.1423,-44 390.1423,-66 505.1423,-66 505.1423,-44 390.1423,-44"/>
<text text-anchor="start" x="395.1423" y="-52" font-family="Times,serif" font-size="10.00" fill="#000000">updatedAt: DATE</text>
<polygon fill="none" stroke="#000000" points="390.1423,-22 390.1423,-44 505.1423,-44 505.1423,-22 390.1423,-22"/>
<text text-anchor="start" x="395.1423" y="-31" font-family="Times,serif" font-style="italic" text-decoration="underline" font-size="10.00" fill="#000000">bubbleId</text>
<text text-anchor="start" x="430.6893" y="-31" font-family="Times,serif" font-size="10.00" fill="#000000">: NUMBER</text>
<polygon fill="none" stroke="#000000" points="390.1423,0 390.1423,-22 505.1423,-22 505.1423,0 390.1423,0"/>
<text text-anchor="start" x="395.0193" y="-9" font-family="Times,serif" font-style="italic" text-decoration="underline" font-size="10.00" fill="#000000">checked_from</text>
<text text-anchor="start" x="452.2123" y="-9" font-family="Times,serif" font-size="10.00" fill="#000000">: NUMBER</text>
</g>
<!-- examinee&#45;&gt;user -->
<g id="edge2" class="edge">
<title>examinee&#45;&gt;user</title>
<path fill="none" stroke="#000000" stroke-width=".75" d="M383.9969,-168.457C351.8494,-187.0174 312.6069,-209.674 279.203,-228.9598"/>
<polygon fill="#000000" stroke="#000000" stroke-width=".75" points="384.3063,-168.2784 390.8525,-167.6166 386.9044,-166.7784 389.5025,-165.2784 389.5025,-165.2784 389.5025,-165.2784 386.9044,-166.7784 388.1524,-162.9401 384.3063,-168.2784 384.3063,-168.2784"/>
</g>
<!-- bubble -->
<g id="node4" class="node">
<title>bubble</title>
<polygon fill="#add8e6" stroke="transparent" points="406.1423,-464.8698 406.1423,-486.8698 489.1423,-486.8698 489.1423,-464.8698 406.1423,-464.8698"/>
<polygon fill="none" stroke="#000000" points="406.1423,-464.8698 406.1423,-486.8698 489.1423,-486.8698 489.1423,-464.8698 406.1423,-464.8698"/>
<text text-anchor="start" x="434.0333" y="-473.8698" font-family="Times,serif" font-weight="bold" font-size="10.00" fill="#000000">bubble</text>
<polygon fill="none" stroke="#000000" points="406.1423,-442.8698 406.1423,-464.8698 489.1423,-464.8698 489.1423,-442.8698 406.1423,-442.8698"/>
<text text-anchor="start" x="411.1423" y="-451.8698" font-family="Times,serif" text-decoration="underline" font-size="10.00" fill="#000000">id</text>
<text text-anchor="start" x="418.9213" y="-451.8698" font-family="Times,serif" font-size="10.00" fill="#000000">: NUMBER</text>
<polygon fill="none" stroke="#000000" points="406.1423,-420.8698 406.1423,-442.8698 489.1423,-442.8698 489.1423,-420.8698 406.1423,-420.8698"/>
<text text-anchor="start" x="411.1423" y="-428.8698" font-family="Times,serif" font-size="10.00" fill="#000000">slug: UUID</text>
<polygon fill="none" stroke="#000000" points="406.1423,-398.8698 406.1423,-420.8698 489.1423,-420.8698 489.1423,-398.8698 406.1423,-398.8698"/>
<text text-anchor="start" x="411.1423" y="-406.8698" font-family="Times,serif" font-size="10.00" fill="#000000">name: STRING</text>
<polygon fill="none" stroke="#000000" points="406.1423,-376.8698 406.1423,-398.8698 489.1423,-398.8698 489.1423,-376.8698 406.1423,-376.8698"/>
<text text-anchor="start" x="411.1423" y="-384.8698" font-family="Times,serif" font-size="10.00" fill="#000000">categories: TEXT</text>
<polygon fill="none" stroke="#000000" points="406.1423,-354.8698 406.1423,-376.8698 489.1423,-376.8698 489.1423,-354.8698 406.1423,-354.8698"/>
<text text-anchor="start" x="411.1423" y="-362.8698" font-family="Times,serif" font-size="10.00" fill="#000000">createdAt: DATE</text>
<polygon fill="none" stroke="#000000" points="406.1423,-332.8698 406.1423,-354.8698 489.1423,-354.8698 489.1423,-332.8698 406.1423,-332.8698"/>
<text text-anchor="start" x="410.8473" y="-340.8698" font-family="Times,serif" font-size="10.00" fill="#000000">updatedAt: DATE</text>
</g>
<!-- bubble&#45;&gt;examinee -->
<g id="edge4" class="edge">
<title>bubble&#45;&gt;examinee</title>
<path fill="none" stroke="#000000" stroke-width=".75" d="M447.1423,-332.8365C447.1423,-313.3107 447.1423,-291.7345 447.1423,-270.1824"/>
<polygon fill="#000000" stroke="#000000" stroke-width=".75" points="447.1424,-270.106 449.8423,-264.1059 447.1423,-267.106 447.1423,-264.106 447.1423,-264.106 447.1423,-264.106 447.1423,-267.106 444.4423,-264.106 447.1424,-270.106 447.1424,-270.106"/>
</g>
<!-- bubble&#45;&gt;user -->
<g id="edge3" class="edge">
<title>bubble&#45;&gt;user</title>
<path fill="none" stroke="#000000" stroke-width=".75" d="M405.5003,-385.8278C372.2851,-366.6509 324.8249,-339.2498 284.584,-316.0167"/>
<polygon fill="#000000" stroke="#000000" stroke-width=".75" points="284.4056,-315.9137 280.5594,-310.5754 281.8075,-314.4137 279.2094,-312.9137 279.2094,-312.9137 279.2094,-312.9137 281.8075,-314.4137 277.8594,-315.2519 284.4056,-315.9137 284.4056,-315.9137"/>
</g>
</g>
</svg>
